<?xml version="1.0" encoding="UTF-8" standalone="no"?>
<!DOCTYPE svg PUBLIC "-//W3C//DTD SVG 20010904//EN"
              "http://www.w3.org/TR/2001/REC-SVG-20010904/DTD/svg10.dtd">

<svg xmlns="http://www.w3.org/2000/svg"
     width="135.486mm" height="135.486mm"
     viewBox="0 0 512 512">
  <path id="eye_contour"
        fill="none" stroke="black" stroke-width="1"
        d="M 40.33,231.67
           C 40.33,231.67 60.33,216.00 60.33,216.00
             60.33,216.00 82.00,197.00 82.00,197.00
             82.00,197.00 106.00,178.33 106.00,178.33
             106.00,178.33 130.18,161.27 130.18,161.27
             130.18,161.27 161.82,142.73 161.82,142.73
             161.82,142.73 185.09,132.55 185.09,132.55
             185.09,132.55 203.27,126.55 203.27,126.55
             203.27,126.55 224.18,122.00 224.18,122.00
             224.18,122.00 241.45,120.36 241.45,120.36
             241.45,120.36 258.36,120.00 258.36,120.00
             258.36,120.00 283.09,121.09 283.09,121.09
             283.09,121.09 310.73,124.91 310.73,124.91
             310.73,124.91 335.64,132.55 335.64,132.55
             335.64,132.55 350.91,138.00 350.91,138.00
             350.91,138.00 368.36,145.82 368.36,145.82
             368.36,145.82 388.36,156.73 388.36,156.73
             388.36,156.73 405.45,167.09 405.45,167.09
             405.45,167.09 418.55,176.73 418.55,176.73
             418.55,176.73 429.82,185.27 429.82,185.27
             429.82,185.27 442.18,196.36 442.18,196.36
             442.18,196.36 453.82,208.91 453.82,208.91
             453.82,208.91 464.00,219.45 464.00,219.45
             464.00,219.45 469.27,226.55 469.27,226.55
             469.27,226.55 476.55,232.18 476.55,232.18
             476.55,232.18 483.27,236.91 483.27,236.91
             483.27,236.91 492.00,240.18 492.00,240.18
             492.00,240.18 500.00,244.36 500.00,244.36
             500.00,244.36 503.27,248.18 503.27,248.18
             503.27,248.18 504.18,253.45 504.18,253.45
             504.18,253.45 503.09,257.82 503.09,258.18
             503.09,258.55 500.55,262.91 500.55,262.91
             500.55,262.91 502.00,269.82 502.00,269.82
             502.00,269.82 501.09,276.18 501.09,276.18
             501.09,276.18 498.00,282.73 498.00,282.73
             498.00,282.73 497.45,288.00 497.45,288.00
             497.45,288.00 498.55,293.45 498.55,293.45
             498.55,293.45 498.36,298.91 498.36,298.91
             498.36,298.91 495.64,303.45 495.64,303.45
             495.64,303.45 494.36,307.27 494.36,307.27
             494.36,307.27 494.00,311.82 494.00,311.82
             494.00,311.82 492.18,315.09 492.18,315.09
             492.18,315.09 489.27,315.82 489.27,315.82
             489.27,315.82 486.55,314.18 486.55,314.18
             486.55,314.18 483.64,310.91 483.64,310.91
             483.64,310.91 482.18,308.36 482.18,308.36
             482.18,308.36 476.55,306.73 476.55,306.73
             476.55,306.73 473.82,303.82 473.82,303.82
             473.82,303.82 473.27,299.64 473.27,299.64
             473.27,299.64 471.45,298.36 471.45,298.36
             471.45,298.36 467.82,298.91 467.82,298.91
             467.82,298.91 464.18,297.45 464.18,297.45
             464.18,297.45 463.27,294.36 463.27,294.36
             463.27,294.36 462.55,291.45 462.55,291.45
             462.55,291.45 459.27,290.73 459.27,290.73
             459.27,290.73 452.73,292.36 452.73,292.36
             452.73,292.36 449.09,291.82 449.09,291.82
             449.09,291.82 445.27,290.55 445.27,290.55
             445.27,290.55 441.45,289.27 441.45,289.27
             441.45,289.27 434.36,290.36 434.36,290.36
             434.36,290.36 431.27,292.36 431.27,292.36
             431.27,292.36 427.45,292.00 427.45,292.00
             427.45,292.00 424.18,290.18 424.18,290.18
             424.18,290.18 420.91,288.91 420.73,288.91
             420.55,288.91 416.00,291.64 416.00,291.64
             416.00,291.64 410.00,297.64 410.00,297.64
             410.00,297.64 405.27,300.73 405.27,300.73
             405.27,300.73 395.82,304.18 395.82,304.18
             395.82,304.18 383.45,309.45 383.45,309.45
             383.45,309.45 370.00,315.45 369.82,315.45
             369.64,315.45 359.45,319.82 359.45,319.82
             359.45,319.82 350.18,323.64 350.18,323.64
             350.18,323.64 345.64,325.45 345.64,325.45
             345.64,325.45 341.27,326.73 341.27,326.73
             341.27,326.73 336.73,328.73 336.55,328.73
             336.36,328.73 331.64,328.91 331.64,328.91
             331.64,328.91 329.64,330.55 329.64,330.55
             329.64,330.55 320.18,332.73 320.18,332.73
             320.18,332.73 312.55,333.64 312.55,333.64
             312.55,333.64 306.18,334.73 306.18,334.73
             306.18,334.73 304.18,336.55 304.18,336.55
             304.18,336.55 302.18,339.09 302.18,339.09
             302.18,339.09 295.64,341.09 295.64,341.09
             295.64,341.09 291.64,341.82 291.64,341.82
             291.64,341.82 288.55,344.73 288.55,344.73
             288.55,344.73 286.55,348.55 286.55,348.55
             286.55,348.55 285.82,352.73 285.82,352.73
             285.82,352.73 284.55,356.36 284.55,356.36
             284.55,356.36 282.36,361.45 282.36,361.45
             282.36,361.45 280.00,366.36 280.00,366.36
             280.00,366.36 277.64,369.64 277.64,369.64
             277.64,369.64 275.27,369.64 275.27,369.64
             275.27,369.64 271.82,365.64 271.82,365.64
             271.82,365.64 269.09,363.09 269.09,363.09
             269.09,363.09 267.45,359.45 267.45,359.45
             267.45,359.45 265.09,356.18 265.09,356.18
             265.09,356.18 260.55,354.00 260.55,354.00
             260.55,354.00 258.18,350.73 258.18,350.73
             258.18,350.73 254.55,345.82 254.55,345.82
             254.55,345.82 248.55,340.55 248.55,340.55
             248.55,340.55 241.45,336.55 241.45,336.55
             241.45,336.55 234.73,334.91 234.73,334.91
             234.73,334.91 226.18,334.36 226.00,334.36
             225.82,334.36 220.73,332.00 220.73,332.00
             220.73,332.00 217.45,329.45 217.45,329.45
             217.45,329.45 211.64,324.73 211.64,324.73
             211.64,324.73 203.27,322.73 203.27,322.73
             203.27,322.73 197.82,320.00 197.82,320.00
             197.82,320.00 194.73,316.55 194.73,316.55
             194.73,316.55 184.36,313.09 184.36,313.09
             184.36,313.09 178.36,310.73 178.36,310.73
             178.36,310.73 174.36,308.00 174.36,308.00
             174.36,308.00 163.45,304.91 163.45,304.91
             163.45,304.91 156.18,302.00 156.18,302.00
             156.18,302.00 147.45,297.82 147.45,297.82
             147.45,297.82 139.27,292.73 139.27,292.73
             139.27,292.73 135.09,291.82 135.09,291.82
             135.09,291.82 132.00,290.18 132.00,290.18
             132.00,290.18 126.36,286.73 126.36,286.73
             126.36,286.73 110.91,280.91 110.91,280.91
             110.91,280.91 98.18,274.55 98.18,274.55
             98.18,274.55 85.82,267.82 85.82,267.82
             85.82,267.82 71.82,259.45 71.82,259.45
             71.82,259.45 61.09,251.64 61.09,251.64
             61.09,251.64 51.45,244.18 51.45,244.18
             51.45,244.18 43.64,237.45 43.64,237.45
             43.64,237.45 40.18,234.18 40.18,234.18" />
</svg>
