<?xml version="1.0" encoding="UTF-8" standalone="no"?>
<!DOCTYPE svg PUBLIC "-//W3C//DTD SVG 20010904//EN"
              "http://www.w3.org/TR/2001/REC-SVG-20010904/DTD/svg10.dtd">

<svg xmlns="http://www.w3.org/2000/svg"
     width="135.486mm" height="135.486mm"
     viewBox="0 0 512 512">
  <path id="tear_center"
        fill="none" stroke="black" stroke-width="1"
        d="M 177.88,310.75
           C 177.88,310.75 178.00,309.00 178.00,309.00
             178.00,309.00 180.75,306.75 180.75,306.75
             180.75,306.75 185.38,305.50 185.38,305.50
             185.38,305.50 190.62,305.50 190.62,305.50
             190.62,305.50 195.75,307.75 195.75,307.75
             195.75,307.75 201.38,310.12 201.38,310.12
             201.38,310.12 206.75,311.38 206.88,311.38
             207.00,311.38 211.75,310.62 211.88,310.62
             212.00,310.62 217.38,309.50 217.50,309.50
             217.62,309.50 222.12,309.12 222.38,309.12
             222.62,309.12 226.25,309.62 226.25,309.62
             226.25,309.62 232.25,311.88 232.25,311.88
             232.25,311.88 237.00,313.12 237.00,313.00
             237.00,312.88 242.88,315.75 242.88,315.88
             242.88,316.00 248.75,318.12 248.88,318.12
             249.00,318.12 258.00,319.00 258.00,319.00
             258.00,319.00 268.00,318.62 268.00,318.62
             268.00,318.62 274.12,318.12 274.12,318.12
             274.12,318.12 280.00,318.75 280.00,318.75
             280.00,318.75 283.75,320.62 283.75,320.62
             283.75,320.62 288.25,321.88 288.38,321.88
             288.50,321.88 293.50,321.38 293.50,321.38
             293.50,321.38 297.75,319.75 297.75,319.75
             297.75,319.75 300.75,319.00 301.25,319.00
             301.75,319.00 304.38,318.50 304.88,318.50
             305.38,318.50 309.00,318.62 309.00,318.62
             309.00,318.62 312.88,319.38 313.25,319.38
             313.62,319.38 318.50,321.38 318.88,321.38
             319.25,321.38 322.25,322.88 322.25,322.88
             322.25,322.88 325.75,324.12 325.75,324.12
             325.75,324.12 329.62,325.50 329.62,325.50
             329.62,325.50 331.56,327.12 331.62,327.06
             331.69,327.00 332.12,329.06 332.12,329.06" />
</svg>
