<?xml version="1.0" encoding="UTF-8" standalone="no"?>
<!DOCTYPE svg PUBLIC "-//W3C//DTD SVG 20010904//EN"
              "http://www.w3.org/TR/2001/REC-SVG-20010904/DTD/svg10.dtd">

<svg xmlns="http://www.w3.org/2000/svg"
     width="135.486mm" height="135.486mm"
     viewBox="0 0 512 512">
  <path id="tear_edge"
        fill="none" stroke="black" stroke-width="1"
        d="M 402.09,302.55
           C 402.09,302.55 405.09,297.09 405.09,297.09
             405.09,297.09 409.09,291.09 409.09,291.09
             409.09,291.09 412.91,287.00 412.91,287.00
             412.91,287.00 416.82,284.27 416.82,284.27
             416.82,284.27 422.64,281.09 422.73,281.00
             422.82,280.91 426.36,277.09 426.36,277.09
             426.36,277.09 430.00,272.36 430.09,272.36
             430.18,272.36 434.64,268.00 434.64,268.00
             434.64,268.00 439.45,264.55 439.45,264.55
             439.45,264.55 443.09,262.64 443.27,262.45
             443.45,262.27 447.09,259.91 447.09,259.91
             447.09,259.91 449.91,258.27 449.91,258.27
             449.91,258.27 455.18,257.73 455.18,257.73
             455.18,257.73 459.00,257.64 459.00,257.64
             459.00,257.64 462.45,258.36 462.45,258.36
             462.45,258.36 465.64,259.91 465.64,259.91
             465.64,259.91 469.45,260.91 469.45,260.91
             469.45,260.91 474.09,260.45 474.09,260.45
             474.09,260.45 477.64,259.09 477.73,259.09
             477.82,259.09 482.36,258.00 482.36,258.00
             482.36,258.00 486.45,257.09 486.45,257.09
             486.45,257.09 490.73,255.91 490.73,255.91
             490.73,255.91 495.45,256.09 495.45,256.09
             495.45,256.09 498.73,257.00 498.73,257.00
             498.73,257.00 500.91,259.64 500.91,259.64
             500.91,259.64 501.33,261.56 501.33,261.56" />
</svg>
