<?xml version="1.0" encoding="UTF-8" standalone="no"?>
<svg
   xmlns:dc="http://purl.org/dc/elements/1.1/"
   xmlns:cc="http://creativecommons.org/ns#"
   xmlns:rdf="http://www.w3.org/1999/02/22-rdf-syntax-ns#"
   xmlns:svg="http://www.w3.org/2000/svg"
   xmlns="http://www.w3.org/2000/svg"
   xmlns:sodipodi="http://sodipodi.sourceforge.net/DTD/sodipodi-0.dtd"
   xmlns:inkscape="http://www.inkscape.org/namespaces/inkscape"
   id="svg8"
   version="1.1"
   viewBox="0 0 256 256"
   height="256"
   width="256"
   sodipodi:docname="teeth_rough.svg"
   inkscape:version="0.92.4 (5da689c313, 2019-01-14)">
  <sodipodi:namedview
     pagecolor="#ffffff"
     bordercolor="#666666"
     borderopacity="1"
     objecttolerance="10"
     gridtolerance="10"
     guidetolerance="10"
     inkscape:pageopacity="0"
     inkscape:pageshadow="2"
     inkscape:window-width="2560"
     inkscape:window-height="1377"
     id="namedview21"
     showgrid="false"
     inkscape:zoom="3.1645286"
     inkscape:cx="147.12239"
     inkscape:cy="164.75304"
     inkscape:window-x="-8"
     inkscape:window-y="32"
     inkscape:window-maximized="1"
     inkscape:current-layer="layer2" />
  <defs
     id="defs2" />
  <metadata
     id="metadata5">
    <rdf:RDF>
      <cc:Work
         rdf:about="">
        <dc:format>image/svg+xml</dc:format>
        <dc:type
           rdf:resource="http://purl.org/dc/dcmitype/StillImage" />
        <dc:title></dc:title>
      </cc:Work>
    </rdf:RDF>
  </metadata>
  <g
     inkscape:groupmode="layer"
     id="layer2"
     inkscape:label="teeths 1">
    <path
       style="fill:none;stroke:#000000;stroke-width:1px;stroke-linecap:butt;stroke-linejoin:miter;stroke-opacity:1"
       d="M 130.07019,89.591082 130.41655,92.010875 129.41224,93.158656 129.65363,93.932965 130.66813,94.643118 130.21161,95.606897 130.71886,96.773577 129.50145,98.396783 130.0087,99.106936 129.90725,100.83159 129.14638,101.23739 128.94348,102.80988 129.24783,104.12873 129.70435,104.63598 129.4,106.41137 129.95798,107.32442 129.09565,109.5056 129.8058,111.12881 130.16088,112.49839 129.8058,113.46217 131.9106,114.97557 133.00149,115.49118 135.53775,115.28828 137.11023,115.89698 138.53054,114.62885 139.49432,114.9332 140.2552,114.57812 140.91462,115.08538 142.2842,114.9332 143.19726,115.49118 144.66829,114.83175 146.03787,115.49118 H 146.6973 L 148.47268,115.18683 149.79153,114.42595 151.00894,114.88248 153.49448,115.5419 155.32058,114.22305 158.92207,113.41144 160.29165,113.7158 162.47284,113.30999 164.65402,113.56362 165.8207,112.59984 167.49463,111.99114 169.21929,112.39694 170.74105,111.53461 171.95845,110.46938 174.54544,110.01286 174.29181,108.44037 173.83528,106.20847 174.29181,105.24469 174.95124,102.30262 174.59616,101.33885 174.74834,99.106936 175.00196,97.230104 175.55994,96.570676 175.17728,95.117033"
       id="path23"
       inkscape:connector-curvature="0" />
    <path
       style="fill:none;stroke:#000000;stroke-width:1px;stroke-linecap:butt;stroke-linejoin:miter;stroke-opacity:1"
       d="M 174.64689,104.02728 175.20486,105.59976 175.05269,107.02007 175.61067,107.78095 176.42443,109.21948 177.94402,109.96213 179.87158,108.84618 181.90059,108.94763 182.56002,109.55633 184.1325,109.35343 185.65426,110.21576 187.12529,109.04908 188.08907,108.59255 188.49487,109.0998 189.25575,108.94763 190.43094,109.21948 191.89346,108.694 191.86997,107.97232 192.75578,106.36064"
       id="path25"
       inkscape:connector-curvature="0" />
    <path
       style="fill:none;stroke:#000000;stroke-width:1px;stroke-linecap:butt;stroke-linejoin:miter;stroke-opacity:1"
       d="M 130.16088,112.49839 128.7913,112.80274 128.08115,114.5274 126.99825,115.29043 125.18981,114.9332 122.755,115.18683 121.33469,116.15061 120.37092,115.28828 118.69698,115.79553 118.13901,114.98393 116.76943,114.67957 V 115.49118 L 114.68969,115.79553 113.06649,114.37522 110.98675,115.08538 110.32732,115.9477 108.34904,114.83175 106.62438,114.78102 106.32003,113.86797 104.6461,114.42595 103.37797,114.7303 100.47472,114.31641 100.08083,113.15782 98.001099,113.20854 96.93587,114.07087 95.718465,113.66507 95.363388,112.75202 93.943083,113.15782 93.131479,113.20854 92.421326,112.80274 91.051746,113.00564 89.428539,112.80274 89.38579,112.29342 88.515485,111.07808 87.703882,111.12881 86.385027,111.23026 85.564603,110.12059 86.232851,108.8969 85.827049,108.38965 86.283576,106.61427 85.573423,105.09251 85.269072,103.6722 85.776324,102.80988 86.334302,101.28812 85.776324,100.42579 84.66037,99.715639 84.913996,98.143157 85.471973,97.838806 86.02995,96.925752 85.414753,94.760922 85.370523,93.374988 84.51565,92.363315"
       id="path27"
       inkscape:connector-curvature="0" />
    <path
       style="fill:none;stroke:#000000;stroke-width:1px;stroke-linecap:butt;stroke-linejoin:miter;stroke-opacity:1"
       d="M 85.864304,107.04866 84.305293,108.23747 82.377735,108.99835 81.05888,108.33892 79.841475,107.83167 78.066093,108.44037 76.645787,108.74473 75.224923,108.24746 73.196473,106.81717 71.776167,107.22297 69.899335,106.36064 67.921052,106.20847 67.464525,104.78816 65.435516,104.94033 64.725364,104.23018 63.536588,104.35135 62.937186,102.703"
       id="path29"
       inkscape:connector-curvature="0" />
    <path
       style="fill:none;stroke:#000000;stroke-width:1px;stroke-linecap:butt;stroke-linejoin:miter;stroke-opacity:1"
       d="M 161.33488,119.77282 161.94464,118.84024 162.26745,117.65659 163.12829,117.8718 163.88152,118.33809 165.20864,117.80007 166.03361,117.51312 167.43247,118.37396 168.22157,117.97941 169.01066,118.44569 H 170.26605 L 171.27036,118.05114 172.52574,118.12288 173.17137,117.51312 H 173.96047 L 174.64196,117.97941 175.07238,118.40982 175.6104,118.23048 175.75387,117.36965 176.79405,117.69246 177.83423,118.44569 179.01787,118.12288 180.09392,117.65659 180.59607,118.48156 181.42104,118.73264 182.46122,119.05545 182.1384,119.73695 182.67642,120.16736 183.64486,120.88473 183.93181,121.9249 183.46552,122.31945 184.57743,122.92921 185.18719,124.04112 184.79264,124.2922 184.07528,124.86609 184.54157,125.54758 184.00355,126.51602 184.14702,127.30512 184.57744,127.95075 184.29049,129.45721 184.43396,130.10284"
       id="path31"
       inkscape:connector-curvature="0" />
    <path
       style="fill:none;stroke:#000000;stroke-width:1px;stroke-linecap:butt;stroke-linejoin:miter;stroke-opacity:1"
       d="M 183.93181,121.9249 184.93612,121.56622 185.15133,120.59778 184.93612,119.84455 185.94042,119.09132 186.01216,118.01527 186.80126,117.80007 187.59036,117.94354 188.30772,117.36965 188.88161,116.72402 190.06526,116.75989 190.31633,115.75558 191.64346,115.18169 192.57603,115.82732 193.25753,115.32516 194.72812,115.18169 195.01506,115.86319 195.48135,115.25343 197.23889,116.47294 197.77691,116.00666 198.81709,116.15013 199.31924,117.36965 199.57032,117.72833 200.53876,117.62073 201.36372,118.33809 201.68654,119.45 202.83432,119.73695 203.94623,120.05976 204.16144,121.38688 204.66359,121.85317 205.41682,121.60209 206.60047,121.67382 207.21023,122.6064 207.28197,123.35963 208.28627,124.07699 209.11124,124.68675 208.75256,125.79866 209.57753,126.04974 210.33076,126.37255"
       id="path33"
       inkscape:connector-curvature="0" />
    <path
       style="fill:none;stroke:#000000;stroke-width:1px;stroke-linecap:butt;stroke-linejoin:miter;stroke-opacity:1"
       d="M 203.94623,120.05976 204.90447,120.05645 205.79216,119.65064 206.88276,119.19412 207.21247,119.955 208.2777,119.52383 208.96249,119.72673 209.54583,119.47311 209.97699,119.21948 210.71251,119.42238 211.01686,119.7521 212.13281,119.49847 212.71615,119.01658 213.67993,119.19412 214.1111,119.49847 214.5632,119.41413 215.35386,120.38616 215.42995,120.99486 215.91184,121.1724 216.72345,121.60357 216.8249,122.21227 216.93049,123.5031"
       id="path38"
       inkscape:connector-curvature="0" />
  </g>
</svg>
