{
	"asset":{
		"generator":"Khronos glTF Blender I/O v3.6.28",
		"version":"2.0"
	},
	"scene":0,
	"scenes":[
		{
			"name":"Scene",
			"nodes":[
				2
			]
		}
	],
	"nodes":[
		{
			"mesh":0,
			"name":"fence_stand_square_stand_square_0"
		},
		{
			"children":[
				0
			],
			"name":"fence_stand_square"
		},
		{
			"children":[
				1
			],
			"name":"RootNode"
		}
	],
	"materials":[
		{
			"name":"stand_square",
			"normalTexture":{
				"index":0
			},
			"occlusionTexture":{
				"index":1
			},
			"pbrMetallicRoughness":{
				"baseColorTexture":{
					"index":2
				},
				"metallicFactor":0,
				"metallicRoughnessTexture":{
					"index":1
				}
			}
		}
	],
	"meshes":[
		{
			"name":"fence_stand_square_stand_square_0",
			"primitives":[
				{
					"attributes":{
						"POSITION":0,
						"NORMAL":1,
						"TEXCOORD_0":2,
						"TEXCOORD_1":3
					},
					"indices":4,
					"material":0
				}
			]
		}
	],
	"textures":[
		{
			"sampler":0,
			"source":0
		},
		{
			"sampler":0,
			"source":1
		},
		{
			"sampler":0,
			"source":2
		}
	],
	"images":[
		{
			"mimeType":"image/png",
			"name":"stand_square_normal",
			"uri":"stand_square_normal.png"
		},
		{
			"mimeType":"image/png",
			"name":"stand_square_metallicRoughness",
			"uri":"stand_square_metallicRoughness.png"
		},
		{
			"mimeType":"image/png",
			"name":"stand_square_baseColor",
			"uri":"stand_square_baseColor.png"
		}
	],
	"accessors":[
		{
			"bufferView":0,
			"componentType":5126,
			"count":516,
			"max":[
				41.25545883178711,
				57.869327545166016,
				-7.421340465545654
			],
			"min":[
				-40.27748489379883,
				-17.369548797607422,
				-29.922874450683594
			],
			"type":"VEC3"
		},
		{
			"bufferView":1,
			"componentType":5126,
			"count":516,
			"type":"VEC3"
		},
		{
			"bufferView":2,
			"componentType":5126,
			"count":516,
			"type":"VEC2"
		},
		{
			"bufferView":3,
			"componentType":5126,
			"count":516,
			"type":"VEC2"
		},
		{
			"bufferView":4,
			"componentType":5123,
			"count":1944,
			"type":"SCALAR"
		}
	],
	"bufferViews":[
		{
			"buffer":0,
			"byteLength":6192,
			"byteOffset":0,
			"target":34962
		},
		{
			"buffer":0,
			"byteLength":6192,
			"byteOffset":6192,
			"target":34962
		},
		{
			"buffer":0,
			"byteLength":4128,
			"byteOffset":12384,
			"target":34962
		},
		{
			"buffer":0,
			"byteLength":4128,
			"byteOffset":16512,
			"target":34962
		},
		{
			"buffer":0,
			"byteLength":3888,
			"byteOffset":20640,
			"target":34963
		}
	],
	"samplers":[
		{
			"magFilter":9729,
			"minFilter":9987
		}
	],
	"buffers":[
		{
			"byteLength":24528,
			"uri":"fence_square.bin"
		}
	]
}
